# xmcd
#
# Track frame offsets:
#	150
#	6485
#	23335
#	45998
#	67456
#	90049
#	118522
#
# Disc length: 1835 seconds
#
# Revision: 1
# Processed by: cddbd v1.5.1PL0 Copyright (c) Steve Scherf et al.
# Submitted via: CDex 1.50Beta5
#
DISCID=4a072907
DTITLE=Core Of Soul - Rainbow
DYEAR=2003
DGENRE=Rock
TTITLE0=Steal A Rainbow
TTITLE1=Hole In Your Socks
TTITLE2=In Your Arms
TTITLE3=…And Once More
TTITLE4=Saint Darkness
TTITLE5=白い奇跡
TTITLE6=Kamisama No Tobacco -Live-
EXTD=
EXTT0=
EXTT1=
EXTT2=
EXTT3=
EXTT4=
EXTT5=
EXTT6=
PLAYORDER=
